<svg xmlns="http://www.w3.org/2000/svg" version="1.1" xmlns:xlink="http://www.w3.org/1999/xlink" xmlns:svgjs="http://svgjs.com/svgjs" width="512" height="512" x="0" y="0" viewBox="0 0 64 64" style="enable-background:new 0 0 512 512" xml:space="preserve" class=""><g><g xmlns="http://www.w3.org/2000/svg"><g><g><path d="m5 62c-.5 0-1-.2-1.4-.6-.8-.8-.8-2 0-2.8l55-55c.8-.8 2-.8 2.8 0s.8 2 0 2.8l-55 55c-.4.4-.9.6-1.4.6z" fill="#ffffff" data-original="#000000" class=""></path></g></g></g><g xmlns="http://www.w3.org/2000/svg"><g><g><path d="m60 62c-.5 0-1-.2-1.4-.6l-55-55c-.8-.8-.8-2 0-2.8s2-.8 2.8 0l55 55c.8.8.8 2 0 2.8-.4.4-.9.6-1.4.6z" fill="#ffffff" data-original="#000000" class=""></path></g></g></g></g></svg>